<svg width="528" height="158" xmlns="http://www.w3.org/2000/svg" xmlns:xlink="http://www.w3.org/1999/xlink"><defs><radialGradient cx="98.488%" cy="100%" fx="98.488%" fy="100%" r="199.527%" gradientTransform="rotate(-136.497 .992 .981) scale(1 .96291)" id="prefix__a"><stop stop-color="#0039F0" offset="0%"/><stop stop-color="#698AF5" offset="100%"/></radialGradient><path d="M245.17 119.09c3.24-.09 5.76-1.08 7.56-2.88 1.89-2.16 3.24-8.55 4.05-18.99l-6.21-1.98c-.36 9.18-1.35 14.49-2.79 16.02-1.08 1.08-2.52 1.62-4.23 1.62h-13.5c-2.7 0-3.96-1.35-3.96-3.96V74.81c9.36-2.52 19.26-6.3 29.61-11.43l-3.87-5.31c-8.37 4.59-16.92 8.1-25.74 10.62V40.16h-6.57v69.93c0 5.94 2.88 9 8.64 9h17.01zm-62.19 1.17c11.34-2.52 22.05-5.31 31.95-8.46l-1.71-6.12c-7.83 2.61-15.66 4.86-23.58 6.66V72.02h23.13v-6.3h-23.13V40.61h-6.48v69.75c0 1.71-.72 2.97-2.16 3.87l1.98 6.03zm164.79-49.05v-6.12h-20.61V54.56h16.65v-5.85h-16.65v-9.63h-6.48v9.63h-15.84v5.85h15.84v10.53h-20.79v6.12h47.88zm-58.41 50.4V91.82c2.79-1.08 5.58-2.25 8.46-3.51v-6.12a238.7 238.7 0 01-8.46 3.6v-21.6h8.19v-6.3h-8.19V39.17h-6.21v18.72h-7.56c.45-3.6.72-7.29.9-11.16l-5.94-.45c-.36 10.35-1.98 20.16-4.77 29.52l5.67 1.62c1.26-4.23 2.34-8.64 3.24-13.23h8.46v23.85c-5.58 1.8-11.25 3.33-17.01 4.5l1.53 6.3c5.22-1.44 10.44-2.97 15.48-4.68v27.45h6.21zm40.68-.63c4.68 0 7.11-2.61 7.11-7.65V87.95h9.9v-6.12h-9.9v-5.85h-6.3v5.85h-28.8v6.12h28.8v23.76c0 2.34-1.08 3.6-3.06 3.6-3.42 0-6.93-.18-10.53-.45l1.35 6.12h11.43zm-15.66-11.61l5.13-3.6c-2.52-3.96-6.12-8.46-10.8-13.68l-5.04 3.15c4.5 5.13 8.1 9.81 10.71 14.13zm57.87 12.42v-61.2c3.15-6.12 5.76-12.6 7.92-19.53l-6.03-2.79c-4.05 14.04-10.44 26.55-19.26 37.44l2.07 6.93c3.24-3.6 6.21-7.47 8.91-11.43v50.58h6.39zm66.15-64.71v-6.12h-28.35l3.42-1.26c-1.08-3.33-2.52-6.93-4.41-10.89l-6.21 1.71c1.8 3.42 3.33 6.84 4.68 10.44h-27.72v6.12h58.59zm-7.74 13.14v-5.85h-42.57v5.85h42.57zm0 12.78v-5.94h-42.57V83h42.57zm-37.98 38.61v-4.86h33.3v4.86h6.3V90.38h-45.9v31.23h6.3zm33.3-10.98h-33.3V96.41h33.3v14.22zm84.96-47.88l5.67-2.07c-1.53-2.79-3.51-5.76-6.03-9h17.01v-5.76h-26.82c.81-2.16 1.53-4.32 2.25-6.57L496.81 38c-2.16 7.74-5.76 14.76-10.62 21.24l5.58 3.51c2.43-3.42 4.59-7.11 6.57-11.07h5.49c2.7 3.6 5.04 7.29 7.11 11.07zm-38.88.45l6.03-2.25c-1.53-2.88-3.51-5.94-6.03-9.27h14.49v-5.76h-23.76c.9-1.98 1.71-3.96 2.43-6.12l-6.21-1.35c-2.52 7.29-6.66 13.86-12.24 19.8l5.67 3.6c2.79-3.06 5.22-6.48 7.38-10.17h5.31c2.7 3.78 4.95 7.56 6.93 11.52zm-2.61 58.5V88.76c2.7 3.42 6.03 7.92 9.81 13.5l3.6-5.4c-4.5-5.13-9-9.81-13.41-14.04v-2.97h12.24v-6.3h-12.24v-9.54h-6.57v9.54h-14.49v6.3h13.68c-3.51 8.82-9.18 16.65-17.01 23.58l2.79 7.2c6.3-6.66 11.34-14.13 15.03-22.41v33.48h6.57zm23.4 0v-4.05h22.86v4.05h6.21V67.07h-35.28v54.63h6.21zm22.86-39.87h-22.86v-9h22.86v9zm0 14.49h-22.86v-8.91h22.86v8.91zm0 15.57h-22.86v-9.99h22.86v9.99z" id="prefix__b"/></defs><g fill="none" fill-rule="evenodd"><rect fill="url(#prefix__a)" y=".919" width="157" height="157" rx="54"/><path d="M26 32.919h106a8 8 0 018 8v66.491a8 8 0 01-8 8H63.75L48.398 125.92 33.25 115.41H26a8 8 0 01-8-8V40.92a8 8 0 018-8z" fill="#FFF"/><g stroke="#0039F0" stroke-linecap="round" stroke-width="12"><path d="M40.656 54.124h76.994M40.656 72.82h38.497M40.656 91.516h38.497"/></g><g fill-rule="nonzero"><use fill="#FFF" xlink:href="#prefix__b"/><use fill="#0039F0" xlink:href="#prefix__b"/></g></g></svg>